frame:0    pts:2138    pts_time:71.2667
lavfi.scene_score=0.551716
frame:1    pts:2933    pts_time:97.7667
lavfi.scene_score=0.387754
frame:2    pts:3571    pts_time:119.033
lavfi.scene_score=0.472777
frame:3    pts:3676    pts_time:122.533
lavfi.scene_score=0.491327
frame:4    pts:4021    pts_time:134.033
lavfi.scene_score=0.466183
frame:5    pts:4134    pts_time:137.8
lavfi.scene_score=0.505145
frame:6    pts:4593    pts_time:153.1
lavfi.scene_score=0.523555
frame:7    pts:4937    pts_time:164.567
lavfi.scene_score=0.459660
frame:8    pts:5031    pts_time:167.7
lavfi.scene_score=0.491831
frame:9    pts:5218    pts_time:173.933
lavfi.scene_score=0.472586
frame:10   pts:5628    pts_time:187.6
lavfi.scene_score=0.474026
frame:11   pts:6113    pts_time:203.767
lavfi.scene_score=0.452052
frame:12   pts:6433    pts_time:214.433
lavfi.scene_score=0.600410
frame:13   pts:6618    pts_time:220.6
lavfi.scene_score=0.544594
frame:14   pts:6673    pts_time:222.433
lavfi.scene_score=0.597128
frame:15   pts:6879    pts_time:229.3
lavfi.scene_score=0.481189
frame:16   pts:6947    pts_time:231.567
lavfi.scene_score=0.481574
frame:17   pts:7024    pts_time:234.133
lavfi.scene_score=0.415874
frame:18   pts:7457    pts_time:248.567
lavfi.scene_score=0.493674
frame:19   pts:7482    pts_time:249.4
lavfi.scene_score=0.260916
frame:20   pts:7485    pts_time:249.5
lavfi.scene_score=0.275796
frame:21   pts:7488    pts_time:249.6
lavfi.scene_score=0.331558
frame:22   pts:7491    pts_time:249.7
lavfi.scene_score=0.273261
frame:23   pts:7493    pts_time:249.767
lavfi.scene_score=0.272667
frame:24   pts:7673    pts_time:255.767
lavfi.scene_score=0.732697
frame:25   pts:8349    pts_time:278.3
lavfi.scene_score=0.495545
frame:26   pts:9632    pts_time:321.067
lavfi.scene_score=0.564803
frame:27   pts:10090   pts_time:336.333
lavfi.scene_score=0.641560
frame:28   pts:10450   pts_time:348.333
lavfi.scene_score=0.519485
frame:29   pts:11142   pts_time:371.4
lavfi.scene_score=0.324382
frame:30   pts:11640   pts_time:388
lavfi.scene_score=0.297839
frame:31   pts:11915   pts_time:397.167
lavfi.scene_score=0.335876
frame:32   pts:12162   pts_time:405.4
lavfi.scene_score=0.399534
frame:33   pts:12324   pts_time:410.8
lavfi.scene_score=0.423695
frame:34   pts:12598   pts_time:419.933
lavfi.scene_score=0.435509
frame:35   pts:12921   pts_time:430.7
lavfi.scene_score=0.430730
frame:36   pts:13003   pts_time:433.433
lavfi.scene_score=0.393800
frame:37   pts:13120   pts_time:437.333
lavfi.scene_score=0.432641
frame:38   pts:13206   pts_time:440.2
lavfi.scene_score=0.430415
frame:39   pts:13547   pts_time:451.567
lavfi.scene_score=0.310710
frame:40   pts:14337   pts_time:477.9
lavfi.scene_score=0.550107
frame:41   pts:14745   pts_time:491.5
lavfi.scene_score=0.265173
frame:42   pts:14755   pts_time:491.833
lavfi.scene_score=0.438910
frame:43   pts:14760   pts_time:492
lavfi.scene_score=0.727103
frame:44   pts:14765   pts_time:492.167
lavfi.scene_score=0.378680
frame:45   pts:15177   pts_time:505.9
lavfi.scene_score=0.567759
frame:46   pts:15265   pts_time:508.833
lavfi.scene_score=0.629908
frame:47   pts:15623   pts_time:520.767
lavfi.scene_score=0.572732
frame:48   pts:15759   pts_time:525.3
lavfi.scene_score=0.622211
frame:49   pts:16367   pts_time:545.567
lavfi.scene_score=0.421625
frame:50   pts:16429   pts_time:547.633
lavfi.scene_score=0.414329
frame:51   pts:16640   pts_time:554.667
lavfi.scene_score=0.544481
frame:52   pts:16885   pts_time:562.833
lavfi.scene_score=0.696454
frame:53   pts:16988   pts_time:566.267
lavfi.scene_score=0.639264
frame:54   pts:17033   pts_time:567.767
lavfi.scene_score=0.425048
frame:55   pts:17059   pts_time:568.633
lavfi.scene_score=0.351882
frame:56   pts:17252   pts_time:575.067
lavfi.scene_score=0.572942
frame:57   pts:17318   pts_time:577.267
lavfi.scene_score=0.519961
frame:58   pts:17372   pts_time:579.067
lavfi.scene_score=0.484157
frame:59   pts:17447   pts_time:581.567
lavfi.scene_score=0.685373
frame:60   pts:17472   pts_time:582.4
lavfi.scene_score=0.283555
frame:61   pts:17499   pts_time:583.3
lavfi.scene_score=0.259606
frame:62   pts:17515   pts_time:583.833
lavfi.scene_score=0.598118
frame:63   pts:17568   pts_time:585.6
lavfi.scene_score=0.547423
frame:64   pts:17649   pts_time:588.3
lavfi.scene_score=0.329417
frame:65   pts:17678   pts_time:589.267
lavfi.scene_score=0.306099
frame:66   pts:17703   pts_time:590.1
lavfi.scene_score=0.390583
frame:67   pts:17763   pts_time:592.1
lavfi.scene_score=0.456611
frame:68   pts:17839   pts_time:594.633
lavfi.scene_score=0.376978
frame:69   pts:17903   pts_time:596.767
lavfi.scene_score=0.728517
frame:70   pts:18164   pts_time:605.467
lavfi.scene_score=0.547750
frame:71   pts:18215   pts_time:607.167
lavfi.scene_score=0.439801
frame:72   pts:18265   pts_time:608.833
lavfi.scene_score=0.409363
frame:73   pts:18418   pts_time:613.933
lavfi.scene_score=0.272353
frame:74   pts:18474   pts_time:615.8
lavfi.scene_score=0.503529
frame:75   pts:18562   pts_time:618.733
lavfi.scene_score=0.716303
frame:76   pts:18630   pts_time:621
lavfi.scene_score=0.389410
frame:77   pts:18775   pts_time:625.833
lavfi.scene_score=0.479858
frame:78   pts:18954   pts_time:631.8
lavfi.scene_score=0.519583
frame:79   pts:19125   pts_time:637.5
lavfi.scene_score=0.665965
frame:80   pts:19221   pts_time:640.7
lavfi.scene_score=0.397593
frame:81   pts:19335   pts_time:644.5
lavfi.scene_score=0.404091
frame:82   pts:19556   pts_time:651.867
lavfi.scene_score=0.576135
frame:83   pts:19745   pts_time:658.167
lavfi.scene_score=0.660973
frame:84   pts:19945   pts_time:664.833
lavfi.scene_score=0.255939
frame:85   pts:19950   pts_time:665
lavfi.scene_score=0.269866
frame:86   pts:19955   pts_time:665.167
lavfi.scene_score=0.266865
frame:87   pts:19965   pts_time:665.5
lavfi.scene_score=0.542210
frame:88   pts:20063   pts_time:668.767
lavfi.scene_score=0.260536
frame:89   pts:20158   pts_time:671.933
lavfi.scene_score=0.555864
frame:90   pts:20418   pts_time:680.6
lavfi.scene_score=0.837279
frame:91   pts:20446   pts_time:681.533
lavfi.scene_score=0.641872
frame:92   pts:20522   pts_time:684.067
lavfi.scene_score=0.555390
frame:93   pts:20676   pts_time:689.2
lavfi.scene_score=0.966859
frame:94   pts:20778   pts_time:692.6
lavfi.scene_score=0.817796
frame:95   pts:21476   pts_time:715.867
lavfi.scene_score=1.000000
frame:96   pts:21740   pts_time:724.667
lavfi.scene_score=0.460374
frame:97   pts:21930   pts_time:731
lavfi.scene_score=0.351746
frame:98   pts:21972   pts_time:732.4
lavfi.scene_score=0.553194
frame:99   pts:22158   pts_time:738.6
lavfi.scene_score=0.531120
frame:100  pts:22207   pts_time:740.233
lavfi.scene_score=0.466590
frame:101  pts:22284   pts_time:742.8
lavfi.scene_score=0.472987
frame:102  pts:22407   pts_time:746.9
lavfi.scene_score=0.701194
frame:103  pts:22916   pts_time:763.867
lavfi.scene_score=0.644579
frame:104  pts:23179   pts_time:772.633
lavfi.scene_score=0.653780
frame:105  pts:23314   pts_time:777.133
lavfi.scene_score=0.380809
frame:106  pts:23380   pts_time:779.333
lavfi.scene_score=0.640215
frame:107  pts:23486   pts_time:782.867
lavfi.scene_score=0.467399
frame:108  pts:23510   pts_time:783.667
lavfi.scene_score=0.285943
frame:109  pts:23514   pts_time:783.8
lavfi.scene_score=0.255082
frame:110  pts:23716   pts_time:790.533
lavfi.scene_score=0.697614
frame:111  pts:23764   pts_time:792.133
lavfi.scene_score=0.276934
frame:112  pts:23819   pts_time:793.967
lavfi.scene_score=0.653604
frame:113  pts:24440   pts_time:814.667
lavfi.scene_score=0.370710
frame:114  pts:25105   pts_time:836.833
lavfi.scene_score=0.444349
frame:115  pts:25145   pts_time:838.167
lavfi.scene_score=0.484463
frame:116  pts:25813   pts_time:860.433
lavfi.scene_score=0.294096
frame:117  pts:27427   pts_time:914.233
lavfi.scene_score=0.691165
frame:118  pts:27825   pts_time:927.5
lavfi.scene_score=0.517267
